<svg width="42" height="42" viewBox="0 0 42 42" fill="none" xmlns="http://www.w3.org/2000/svg">
<path d="M14.4375 26.25C19.1492 26.25 22.9688 22.4304 22.9688 17.7187C22.9688 13.0071 19.1492 9.1875 14.4375 9.1875C9.72582 9.1875 5.90625 13.0071 5.90625 17.7187C5.90625 22.4304 9.72582 26.25 14.4375 26.25Z" stroke="#2C2C2C" stroke-width="2" stroke-miterlimit="10"/>
<path d="M25.4961 9.49922C26.2503 9.29468 27.028 9.18988 27.8094 9.1875C30.072 9.1875 32.242 10.0863 33.8419 11.6862C35.4418 13.2862 36.3406 15.4561 36.3406 17.7187C36.3406 19.9814 35.4418 22.1513 33.8419 23.7513C32.242 25.3512 30.072 26.25 27.8094 26.25" stroke="#2C2C2C" stroke-width="2" stroke-linecap="round" stroke-linejoin="round"/>
<path d="M2.625 32.3859C3.9571 30.4903 5.72584 28.9431 7.78182 27.875C9.83781 26.807 12.1206 26.2494 14.4375 26.2494C16.7544 26.2494 19.0372 26.807 21.0932 27.875C23.1492 28.9431 24.9179 30.4903 26.25 32.3859" stroke="#2C2C2C" stroke-width="2" stroke-linecap="round" stroke-linejoin="round"/>
<path d="M27.8086 26.25C30.1257 26.2486 32.4089 26.8055 34.4651 27.8735C36.5213 28.9416 38.2899 30.4894 39.6211 32.3859" stroke="#2C2C2C" stroke-width="2" stroke-linecap="round" stroke-linejoin="round"/>
</svg>
