<svg width="42" height="42" viewBox="0 0 42 42" fill="none" xmlns="http://www.w3.org/2000/svg">
<path d="M15.75 24.9375H26.25" stroke="#2C2C2C" stroke-width="2" stroke-linecap="round" stroke-linejoin="round"/>
<path d="M15.75 19.6875H26.25" stroke="#2C2C2C" stroke-width="2" stroke-linecap="round" stroke-linejoin="round"/>
<path d="M26.25 6.5625H32.8125C33.1606 6.5625 33.4944 6.70078 33.7406 6.94692C33.9867 7.19306 34.125 7.5269 34.125 7.875V35.4375C34.125 35.7856 33.9867 36.1194 33.7406 36.3656C33.4944 36.6117 33.1606 36.75 32.8125 36.75H9.1875C8.8394 36.75 8.50556 36.6117 8.25942 36.3656C8.01328 36.1194 7.875 35.7856 7.875 35.4375V7.875C7.875 7.5269 8.01328 7.19306 8.25942 6.94692C8.50556 6.70078 8.8394 6.5625 9.1875 6.5625H15.75" stroke="#2C2C2C" stroke-width="2" stroke-linecap="round" stroke-linejoin="round"/>
<path d="M14.4375 11.8125V10.5C14.4375 8.75952 15.1289 7.09032 16.3596 5.85961C17.5903 4.6289 19.2595 3.9375 21 3.9375C22.7405 3.9375 24.4097 4.6289 25.6404 5.85961C26.8711 7.09032 27.5625 8.75952 27.5625 10.5V11.8125H14.4375Z" stroke="#2C2C2C" stroke-width="2" stroke-linecap="round" stroke-linejoin="round"/>
</svg>
