<svg width="42" height="42" viewBox="0 0 42 42" fill="none" xmlns="http://www.w3.org/2000/svg">
<path d="M17.7188 26.25C23.1553 26.25 27.5625 21.8428 27.5625 16.4062C27.5625 10.9697 23.1553 6.5625 17.7188 6.5625C12.2822 6.5625 7.875 10.9697 7.875 16.4062C7.875 21.8428 12.2822 26.25 17.7188 26.25Z" stroke="#2C2C2C" stroke-width="2" stroke-miterlimit="10"/>
<path d="M3.64258 32.8125C5.36729 30.7569 7.52129 29.104 9.95318 27.9699C12.3851 26.8359 15.0358 26.2482 17.7191 26.2482C20.4025 26.2482 23.0532 26.8359 25.4851 27.9699C27.917 29.104 30.071 30.7569 31.7957 32.8125" stroke="#2C2C2C" stroke-width="2" stroke-linecap="round" stroke-linejoin="round"/>
<path d="M36.0938 24.9375C37.5435 24.9375 38.7188 23.7622 38.7188 22.3125C38.7188 20.8628 37.5435 19.6875 36.0938 19.6875C34.644 19.6875 33.4688 20.8628 33.4688 22.3125C33.4688 23.7622 34.644 24.9375 36.0938 24.9375Z" stroke="#2C2C2C" stroke-width="2" stroke-linecap="round" stroke-linejoin="round"/>
<path d="M36.0938 19.6875V17.7188" stroke="#2C2C2C" stroke-width="2" stroke-linecap="round" stroke-linejoin="round"/>
<path d="M33.8129 21L32.123 20.0156" stroke="#2C2C2C" stroke-width="2" stroke-linecap="round" stroke-linejoin="round"/>
<path d="M33.8129 23.625L32.123 24.6094" stroke="#2C2C2C" stroke-width="2" stroke-linecap="round" stroke-linejoin="round"/>
<path d="M36.0938 24.9375V26.9062" stroke="#2C2C2C" stroke-width="2" stroke-linecap="round" stroke-linejoin="round"/>
<path d="M38.375 23.625L40.0648 24.6094" stroke="#2C2C2C" stroke-width="2" stroke-linecap="round" stroke-linejoin="round"/>
<path d="M38.375 21L40.0648 20.0156" stroke="#2C2C2C" stroke-width="2" stroke-linecap="round" stroke-linejoin="round"/>
</svg>
